<?xml version="1.0" encoding="utf-8"?>
<svg xmlns="http://www.w3.org/2000/svg" height="35" width="35" viewBox="0 0 35 35">
  <g>
    <ellipse cy="17.5" cx="17.5" ry="17.5" rx="17.5" fill="#E46A6A" />
    <path id="path1" transform="rotate(0,17.5,17.5) translate(1.6,1.6) scale(0.99375,0.99375)  " fill="#FFFFFF" d="M8,20L24,20 24,22 8,22z M8,15L24,15 24,17 8,17z M8,10L24,10 24,12 8,12z M16,2C8.28,2 2,8.2800002 2,16 2,23.72 8.28,30 16,30 23.72,30 30,23.72 30,16 30,8.2800002 23.72,2 16,2z M16,0C24.822001,0 32,7.178 32,16 32,24.822 24.822001,32 16,32 7.178,32 0,24.822 0,16 0,7.178 7.178,0 16,0z" />
  </g>
</svg>

