<?xml version="1.0" encoding="utf-8"?>
<svg xmlns="http://www.w3.org/2000/svg" height="35" width="35" viewBox="0 0 35 35">
  <g>
    <path id="path1" transform="rotate(0,17.5,17.5) translate(1.04308128356934E-06,0) scale(1.09375,1.09375)  " fill="#E46A6A" d="M24,24C26.2,24 27.999999,25.8 27.999999,28.000001 27.999999,30.2 26.2,32.000001 24,32.000001 21.799999,32.000001 20,30.2 20,28.000001 20,25.8 21.799999,24 24,24z M14,24C16.199999,24 17.999999,25.8 18,28.000001 17.999999,30.2 16.199999,32.000001 14,32.000001 11.799999,32.000001 9.9999995,30.2 9.9999995,28.000001 9.9999995,25.8 11.799999,24 14,24z M1.999999,0L5.999999,0C6.8999996,0,7.5999994,0.5,7.8999996,1.4000006L9.3999996,6.0000007 29.999999,6.0000007C30.599999,6.0000005 31.2,6.3000004 31.599999,6.8000004 31.999999,7.4000005 32.099999,8.0000005 31.9,8.6000006L27.9,20.6C27.599999,21.400001,26.9,22,25.999999,22L12,22C11.099999,22,10.4,21.400001,10.099999,20.6L4.5999994,4.0000005 1.999999,4.0000005C0.89999962,4.0000005 0,3.1000004 0,2.0000005 0,0.90000057 0.89999962,0 1.999999,0z" />
  </g>
</svg>

