<?xml version="1.0" encoding="utf-8"?>
<svg xmlns="http://www.w3.org/2000/svg" height="35" width="35" viewBox="0 0 35 35">
  <g>
    <path id="path1" transform="rotate(0,17.5,17.5) translate(0.455000400543213,0) scale(1.09375,1.09375)  " fill="#E46A6A" d="M8.3560181,18.363037C10.371002,19.880005 12.873993,20.779053 15.584991,20.779053 18.295013,20.779053 20.799011,19.880005 22.813995,18.363037 27.524017,18.955994 31.167999,22.973022 31.167999,27.843994L31.167999,32 0,32 0,27.843994C0,22.973022,3.6459961,18.955994,8.3560181,18.363037z M15.584991,0C20.403992,0 24.311005,3.90802 24.311005,8.7280273 24.311005,13.548035 20.403992,17.454041 15.584991,17.454041 10.765015,17.454041 6.8580017,13.548035 6.8580017,8.7280273 6.8580017,3.90802 10.765015,0 15.584991,0z" />
  </g>
</svg>

